:SAMPLES-PER-SECOND 30
:FULLY-SPECIFIED
:DEGREES
299
root  35.10904688 36.52012742 -14.71302453 9.188325882 4.467297077 3.052243471
lowerback  -8.514089584 0.3681199551 1.263260245
upperback  -3.691349983 0.09847529978 -2.764080048
thorax  0.9602289796 -0.1270370036 -3.562949896
lowerneck  -16.9178009 1.670300007 1.726639986
upperneck  15.69270039 0.9021890163 3.969530106
head  7.620150089 0.8542000055 1.121099949
lclavicle  0 -4.497500157e-015 -2.743230041e-014
lhumerus  -43.44409943 26.52589989 70.53730011
lradius  -0.157308057 -6.507048965e-006 28.2798996
lwrist  4.824992743e-007 -3.790274832e-007 -28.50049973
lhand  -4.406895947e-031 -36.74819946 -10.74100018
lfingers  90 7.125020027 -90
lthumb  94.7587523 -25.58097149 100.9126007
rclavicle  0 -4.497500157e-015 -2.743230041e-014
rhumerus  -43.46519852 -14.55519867 -72.06069946
rradius  -5.16745672e-007 2.214343908e-008 96.31439972
rwrist  1.129822067e-006 0.001802438172 -174.6269989
rhand  -1.77122276e-031 4.581779957 -4.886229992
rfingers  -90 -7.125020027 -90
rthumb  -83.6692091 -10.82508568 -59.42855957
rfemur  -11.34038067 13.74848461 14.15651608
rtibia  -0.95197469 1.732649684 20.60507393
rfoot  -0.5845903754 -16.94756317 -41.28162384
rtoes  3.900746133 19.63121218 -101.4727228
lfemur  -9.633256912 -19.98980713 -18.5952301
ltibia  2.031663418 1.17355001 15.35327339
lfoot  0.2933417261 -28.16166115 33.38265228
ltoes  -8.541473009 -18.15225164 -115.7381405
300
root  35.10783639 36.5188058 -14.7160898 9.165781021 4.380467892 3.067872763
lowerback  -8.492058754 0.3431609869 1.329889655
upperback  -3.699359894 0.05989360064 -2.752029896
thorax  0.9371160269 -0.1471610069 -3.591550112
lowerneck  -16.98629951 1.742879987 1.786419988
upperneck  15.80959988 0.9834110141 3.936009884
head  7.670259953 0.8949440122 1.111519933
lclavicle  0 -4.497500157e-015 -2.743230041e-014
lhumerus  -43.47129822 26.57299995 70.45570374
lradius  -0.1534953862 -6.507048965e-006 28.2589016
lwrist  4.824992743e-007 -3.790274832e-007 -28.75429916
lhand  -4.409753888e-031 -36.79790115 -10.75039959
lfingers  90 7.125020027 -90
lthumb  94.78409238 -25.58847005 100.966642
rclavicle  0 -4.497500157e-015 -2.743230041e-014
rhumerus  -44.01480103 -15.06050014 -72.06600189
rradius  -5.16745672e-007 2.214343908e-008 94.92120361
rwrist  1.129822067e-006 0.001802438172 -173.9400024
rhand  -1.771930836e-031 4.859109879 -5.101230145
rfingers  -90 -7.125020027 -90
rthumb  -83.70605316 -10.65247886 -59.17703573
rfemur  -11.35651112 13.78346062 14.14154053
rtibia  -0.9643399119 1.715353489 20.65515327
rfoot  -0.5969589949 -16.99308586 -41.23933792
rtoes  3.892347283 19.6328159 -101.4477246
lfemur  -9.506597519 -19.91653442 -18.66488457
ltibia  2.107068539 1.202454925 15.21350956
lfoot  0.3283658326 -28.16576576 33.48654175
ltoes  -8.556156991 -18.14551777 -115.785282
301
root  35.10957553 36.51670621 -14.72516248 9.11464119 4.299089432 3.07691741
lowerback  -8.559418678 0.3198710382 1.336610079
upperback  -3.705749989 0.02608910017 -2.730989933
thorax  0.9652259946 -0.1644549966 -3.576989889
lowerneck  -17.03630066 1.799620032 1.820119977
upperneck  15.92109966 1.046229959 3.921910048
head  7.715459824 0.9267190099 1.11064899
lclavicle  0 -4.497500157e-015 -2.743230041e-014
lhumerus  -43.5041008 26.5067997 70.42919922
lradius  -0.1496545374 -6.507048965e-006 28.20149803
lwrist  4.824992743e-007 -3.790274832e-007 -29.16729927
lhand  -4.408758328e-031 -36.7806015 -10.70950031
lfingers  90 7.125020027 -90
lthumb  94.76737377 -25.54891691 100.9444684
rclavicle  0 -4.497500157e-015 -2.743230041e-014
rhumerus  -44.5379982 -15.61119938 -71.96230316
rradius  -5.16745672e-007 2.214343908e-008 93.48709869
rwrist  1.129822067e-006 0.001802438172 -173.3170013
rhand  -1.770394641e-031 4.234189987 -5.052420139
rfingers  -90 -7.125020027 -90
rthumb  -83.84801239 -10.66646252 -59.78585138
rfemur  -11.35327911 13.87928009 14.13224602
rtibia  -0.9839932919 1.709892035 20.70103836
rfoot  -0.6164484024 -17.00335503 -41.26480484
rtoes  3.899464943 19.63145705 -101.4689094
lfemur  -9.467378616 -19.82248878 -18.69443893
ltibia  2.10131526 1.208958507 15.23230839
lfoot  0.3589267135 -28.21749115 33.53266525
ltoes  -8.552300206 -18.14728783 -115.7728985
302
root  35.10093689 36.51935547 -14.72743327 9.164428711 4.237212658 3.066794872
lowerback  -8.46560955 0.2930229604 1.414759755
upperback  -3.707619905 -0.01390310004 -2.740639925
thorax  0.9086300135 -0.1852920055 -3.634330034
lowerneck  -17.04990005 1.845190048 1.84315002
upperneck  16.00359917 1.092159986 3.938280106
head  7.744800091 0.9516609907 1.113767862
lclavicle  0 -4.497500157e-015 -2.743230041e-014
lhumerus  -43.55260086 26.42869949 70.39890289
lradius  -0.1457948834 -6.507048965e-006 28.22019958
lwrist  4.824992743e-007 -3.790274832e-007 -29.36639977
lhand  -4.408758328e-031 -36.7806015 -10.71360016
lfingers  90 7.125020027 -90
lthumb  94.76822899 -25.55304549 100.9447832
rclavicle  0 -4.497500157e-015 -2.743230041e-014
rhumerus  -45.0807991 -16.04260063 -71.85839844
rradius  -5.16745672e-007 2.214343908e-008 92.01370239
rwrist  1.129822067e-006 0.001802438172 -172.6730042
rhand  -1.770540587e-031 4.297510147 -5.141640186
rfingers  -90 -7.125020027 -90
rthumb  -83.876969 -10.59218524 -59.7321692
rfemur  -11.4189024 13.86618328 14.13845444
rtibia  -0.9895976782 1.674154997 20.69660759
rfoot  -0.6001325846 -17.06152916 -41.19938278
rtoes  3.909500135 19.62953681 -101.4987802
lfemur  -9.586303711 -19.85297966 -18.63357544
ltibia  2.056396961 1.175779343 15.32392406
lfoot  0.359072566 -28.15956497 33.55375671
ltoes  -8.571482709 -18.13847423 -115.8345018
